<mxfile host="app.diagrams.net" agent="Mozilla/5.0 (Macintosh; Intel Mac OS X 10_15_7) AppleWebKit/537.36 (KHTML, like Gecko) Chrome/128.0.0.0 Safari/537.36" version="24.7.10">
  <diagram name="第 1 页" id="Hl8DtlvBZs6gNYzE2mFJ">
    <mxGraphModel dx="420" dy="1145" grid="1" gridSize="10" guides="1" tooltips="1" connect="1" arrows="1" fold="1" page="1" pageScale="1" pageWidth="827" pageHeight="1169" math="0" shadow="0">
      <root>
        <mxCell id="0" />
        <mxCell id="1" parent="0" />
        <mxCell id="YGkxpROzYVSTNtdOgXMg-1" value="a" style="ellipse;whiteSpace=wrap;html=1;fontSize=15;" parent="1" vertex="1">
          <mxGeometry x="2190" y="705" width="50" height="35" as="geometry" />
        </mxCell>
        <mxCell id="YGkxpROzYVSTNtdOgXMg-2" value="b" style="ellipse;whiteSpace=wrap;html=1;fontSize=15;" parent="1" vertex="1">
          <mxGeometry x="2290" y="705" width="50" height="35" as="geometry" />
        </mxCell>
        <mxCell id="YGkxpROzYVSTNtdOgXMg-3" value="a" style="ellipse;whiteSpace=wrap;html=1;fontSize=15;" parent="1" vertex="1">
          <mxGeometry x="2140" y="815" width="50" height="35" as="geometry" />
        </mxCell>
        <mxCell id="YGkxpROzYVSTNtdOgXMg-4" value="b" style="ellipse;whiteSpace=wrap;html=1;fontSize=15;" parent="1" vertex="1">
          <mxGeometry x="2365" y="815" width="50" height="35" as="geometry" />
        </mxCell>
        <mxCell id="YGkxpROzYVSTNtdOgXMg-5" value="c" style="ellipse;whiteSpace=wrap;html=1;fontSize=15;" parent="1" vertex="1">
          <mxGeometry x="2215" y="815" width="50" height="35" as="geometry" />
        </mxCell>
        <mxCell id="YGkxpROzYVSTNtdOgXMg-6" value="d" style="ellipse;whiteSpace=wrap;html=1;fontSize=15;" parent="1" vertex="1">
          <mxGeometry x="2288" y="815" width="50" height="35" as="geometry" />
        </mxCell>
        <mxCell id="YGkxpROzYVSTNtdOgXMg-7" value="" style="endArrow=classic;html=1;rounded=0;entryX=0.5;entryY=0;entryDx=0;entryDy=0;fontSize=15;" parent="1" edge="1">
          <mxGeometry width="50" height="50" relative="1" as="geometry">
            <mxPoint x="2314.5" y="636" as="sourcePoint" />
            <mxPoint x="2314.5" y="696" as="targetPoint" />
          </mxGeometry>
        </mxCell>
        <mxCell id="YGkxpROzYVSTNtdOgXMg-8" value="commonHead" style="text;html=1;align=center;verticalAlign=middle;resizable=0;points=[];autosize=1;strokeColor=none;fillColor=none;fontSize=15;" parent="1" vertex="1">
          <mxGeometry x="2255" y="605" width="120" height="30" as="geometry" />
        </mxCell>
        <mxCell id="YGkxpROzYVSTNtdOgXMg-9" value="" style="endArrow=classic;html=1;rounded=0;entryX=0.5;entryY=0;entryDx=0;entryDy=0;fontSize=15;" parent="1" edge="1">
          <mxGeometry width="50" height="50" relative="1" as="geometry">
            <mxPoint x="2214" y="635" as="sourcePoint" />
            <mxPoint x="2214" y="695" as="targetPoint" />
          </mxGeometry>
        </mxCell>
        <mxCell id="YGkxpROzYVSTNtdOgXMg-10" value="oldEnd" style="text;html=1;align=center;verticalAlign=middle;resizable=0;points=[];autosize=1;strokeColor=none;fillColor=none;fontSize=15;" parent="1" vertex="1">
          <mxGeometry x="2175" y="605" width="70" height="30" as="geometry" />
        </mxCell>
        <mxCell id="YGkxpROzYVSTNtdOgXMg-11" value="" style="endArrow=classic;html=1;rounded=0;fontSize=15;" parent="1" edge="1">
          <mxGeometry width="50" height="50" relative="1" as="geometry">
            <mxPoint x="2239.5" y="920" as="sourcePoint" />
            <mxPoint x="2239.5" y="860" as="targetPoint" />
          </mxGeometry>
        </mxCell>
        <mxCell id="YGkxpROzYVSTNtdOgXMg-12" value="commonHead" style="text;html=1;align=center;verticalAlign=middle;resizable=0;points=[];autosize=1;strokeColor=none;fillColor=none;fontSize=15;" parent="1" vertex="1">
          <mxGeometry x="2180" y="930" width="120" height="30" as="geometry" />
        </mxCell>
        <mxCell id="YGkxpROzYVSTNtdOgXMg-13" value="" style="endArrow=classic;html=1;rounded=0;fontSize=15;" parent="1" edge="1">
          <mxGeometry width="50" height="50" relative="1" as="geometry">
            <mxPoint x="2315" y="920" as="sourcePoint" />
            <mxPoint x="2315" y="860" as="targetPoint" />
          </mxGeometry>
        </mxCell>
        <mxCell id="YGkxpROzYVSTNtdOgXMg-14" value="newEnd" style="text;html=1;align=center;verticalAlign=middle;resizable=0;points=[];autosize=1;strokeColor=none;fillColor=none;fontSize=15;" parent="1" vertex="1">
          <mxGeometry x="2285" y="930" width="80" height="30" as="geometry" />
        </mxCell>
        <mxCell id="YGkxpROzYVSTNtdOgXMg-15" value="" style="endArrow=classic;html=1;rounded=0;exitX=0.5;exitY=0;exitDx=0;exitDy=0;dashed=1;dashPattern=8 8;fontSize=15;" parent="1" source="YGkxpROzYVSTNtdOgXMg-5" edge="1">
          <mxGeometry width="50" height="50" relative="1" as="geometry">
            <mxPoint x="2230" y="815" as="sourcePoint" />
            <mxPoint x="2250" y="725" as="targetPoint" />
          </mxGeometry>
        </mxCell>
        <mxCell id="YGkxpROzYVSTNtdOgXMg-16" value="插入" style="edgeLabel;html=1;align=center;verticalAlign=middle;resizable=0;points=[];fontSize=15;" parent="YGkxpROzYVSTNtdOgXMg-15" vertex="1" connectable="0">
          <mxGeometry x="-0.0878" relative="1" as="geometry">
            <mxPoint as="offset" />
          </mxGeometry>
        </mxCell>
        <mxCell id="YGkxpROzYVSTNtdOgXMg-17" value="" style="endArrow=classic;html=1;rounded=0;exitX=0.5;exitY=0;exitDx=0;exitDy=0;dashed=1;dashPattern=8 8;fontSize=15;" parent="1" source="YGkxpROzYVSTNtdOgXMg-6" edge="1">
          <mxGeometry width="50" height="50" relative="1" as="geometry">
            <mxPoint x="2288" y="810" as="sourcePoint" />
            <mxPoint x="2280" y="725" as="targetPoint" />
          </mxGeometry>
        </mxCell>
        <mxCell id="YGkxpROzYVSTNtdOgXMg-18" value="插入" style="edgeLabel;html=1;align=center;verticalAlign=middle;resizable=0;points=[];fontSize=15;" parent="YGkxpROzYVSTNtdOgXMg-17" vertex="1" connectable="0">
          <mxGeometry x="-0.0878" relative="1" as="geometry">
            <mxPoint as="offset" />
          </mxGeometry>
        </mxCell>
        <mxCell id="YGkxpROzYVSTNtdOgXMg-19" value="oldArray：" style="text;html=1;align=center;verticalAlign=middle;resizable=0;points=[];autosize=1;strokeColor=none;fillColor=none;fontSize=15;" parent="1" vertex="1">
          <mxGeometry x="2105" y="707.5" width="90" height="30" as="geometry" />
        </mxCell>
        <mxCell id="YGkxpROzYVSTNtdOgXMg-20" value="newArray：" style="text;html=1;align=center;verticalAlign=middle;resizable=0;points=[];autosize=1;strokeColor=none;fillColor=none;fontSize=14;" parent="1" vertex="1">
          <mxGeometry x="2045" y="817.5" width="100" height="30" as="geometry" />
        </mxCell>
        <mxCell id="YGkxpROzYVSTNtdOgXMg-21" value="[{op: add, path: [&#39;oldArray&#39;, 1], val: c},&lt;br style=&quot;font-size: 15px;&quot;&gt;{op: add, path: [&#39;oldArray&#39;, 2], val: d}]" style="rounded=1;whiteSpace=wrap;html=1;fontSize=15;" parent="1" vertex="1">
          <mxGeometry x="2130" y="974" width="330" height="96" as="geometry" />
        </mxCell>
        <mxCell id="YGkxpROzYVSTNtdOgXMg-22" value="结果" style="text;html=1;align=center;verticalAlign=middle;resizable=0;points=[];autosize=1;strokeColor=none;fillColor=none;fontSize=15;" parent="1" vertex="1">
          <mxGeometry x="2130" y="974" width="50" height="30" as="geometry" />
        </mxCell>
      </root>
    </mxGraphModel>
  </diagram>
</mxfile>
